<svg width="70" height="21" viewBox="0 0 70 21" fill="none" xmlns="http://www.w3.org/2000/svg">
<path d="M10.8336 3.77708C7.05784 3.77708 4.89652 6.51128 4.89652 10.6256C4.89652 14.8701 7.34428 17.1877 10.8597 17.1877C14.1668 17.1877 16.1718 15.3649 16.1718 12.3182V12.2401H10.417V9.29756H19.2706V20H16.4583L16.25 17.8126C15.2084 19.2709 13.047 20.2864 10.4691 20.2864C5.13088 20.2864 1.40716 16.4065 1.40716 10.5475C1.40716 4.7666 5.18296 0.652277 10.9118 0.652277C15.2604 0.652277 18.6196 3.17816 19.1664 7.05812H15.651C15.0521 4.81868 13.1252 3.77708 10.8336 3.77708ZM26.2292 20.3385C23.495 20.3385 21.8284 18.7501 21.8284 16.3284C21.8284 13.9587 23.5471 12.4744 26.5937 12.2401L30.4477 11.9536V11.6672C30.4477 9.92252 29.4061 9.21944 27.7916 9.21944C25.9167 9.21944 24.8751 10.0006 24.8751 11.3547H22.1669C22.1669 8.56844 24.4585 6.74564 27.9478 6.74564C31.4111 6.74564 33.5464 8.62052 33.5464 12.188V20H30.7601L30.5258 18.0991C29.9789 19.4271 28.2343 20.3385 26.2292 20.3385ZM27.2708 17.9428C29.2238 17.9428 30.4737 16.771 30.4737 14.792V14.115L27.7916 14.3233C25.8125 14.5056 25.0574 15.1566 25.0574 16.1982C25.0574 17.37 25.8386 17.9428 27.2708 17.9428ZM38.2558 4.55828C37.1621 4.55828 36.3028 3.69896 36.3028 2.63132C36.3028 1.56368 37.1621 0.730398 38.2558 0.730398C39.2974 0.730398 40.1567 1.56368 40.1567 2.63132C40.1567 3.69896 39.2974 4.55828 38.2558 4.55828ZM36.6674 20V7.13624H39.8442V20H36.6674ZM48.4126 20.3385C44.6889 20.3385 42.3713 17.6043 42.3713 13.6202C42.3713 9.61004 44.7149 6.74564 48.5949 6.74564C50.3917 6.74564 51.9801 7.5008 52.7873 8.77676V0.626237H55.9382V20H53.0217L52.8134 17.9949C52.0322 19.4792 50.3656 20.3385 48.4126 20.3385ZM49.1157 17.422C51.3291 17.422 52.7613 15.8336 52.7613 13.516C52.7613 11.1985 51.3291 9.584 49.1157 9.584C46.9023 9.584 45.5482 11.2245 45.5482 13.516C45.5482 15.8076 46.9023 17.422 49.1157 17.422Z" fill="#1E1E1E"/>
<path d="M64.1219 10.162C61.5298 10.162 59.4985 8.08085 59.4985 5.43891C59.4985 2.79696 61.5298 0.728271 64.1219 0.728271C66.7015 0.728271 68.7328 2.79696 68.7328 5.43891C68.7328 8.08085 66.7015 10.162 64.1219 10.162ZM64.1219 9.23982C66.1781 9.23982 67.7483 7.59483 67.7483 5.43891C67.7483 3.28298 66.1781 1.65046 64.1219 1.65046C62.0532 1.65046 60.4705 3.29544 60.4705 5.43891C60.4705 7.59483 62.0532 9.23982 64.1219 9.23982ZM61.779 5.45137C61.779 4.00578 62.7635 2.98389 64.1468 2.98389C65.393 2.98389 66.2653 3.68177 66.4024 4.80335H65.231C65.0939 4.27994 64.745 4.01824 64.1842 4.01824C63.4489 4.01824 62.938 4.59149 62.938 5.43891C62.938 6.31125 63.424 6.85958 64.1468 6.85958C64.7325 6.85958 65.1064 6.59787 65.2435 6.08693H66.4024C66.2653 7.17113 65.3556 7.90638 64.1468 7.90638C62.7261 7.90638 61.779 6.92189 61.779 5.45137Z" fill="#1E1E1E"/>
</svg>
