<svg width="48" height="47" viewBox="0 0 48 47" fill="none" xmlns="http://www.w3.org/2000/svg">
<circle cx="23.8954" cy="23.4999" r="23.205" fill="#FCFCFC"/>
<circle cx="24.0005" cy="23.605" r="18.27" stroke="black" stroke-width="1.68"/>
<path d="M24.0995 16.5412C20.1908 16.5412 17.9535 19.3716 17.9535 23.6307C17.9535 28.0246 20.4873 30.4237 24.1264 30.4237C27.5499 30.4237 29.6255 28.5368 29.6255 25.3829V25.302H23.6682V22.256H32.8333V33.335H29.922L29.7064 31.0706C28.6281 32.5802 26.3908 33.6315 23.7221 33.6315C18.1961 33.6315 14.3413 29.615 14.3413 23.5499C14.3413 17.5656 18.25 13.3065 24.1803 13.3065C28.682 13.3065 32.1594 15.9213 32.7255 19.9377H29.0864C28.4664 17.6195 26.4716 16.5412 24.0995 16.5412Z" fill="black"/>
</svg>
